<svg width="512" height="512" viewBox="0 0 512 512" fill="none" xmlns="http://www.w3.org/2000/svg">
<rect width="512" height="512" rx="48" fill="#163D42"/>
<path d="M264.256 86.666C175.679 86.666 103.663 159.397 103.663 248.854V409.814C103.663 419.328 111.26 427 120.68 427C130.099 427 137.696 419.328 137.696 409.814V248.854C137.696 178.424 194.519 121.037 264.256 121.037C273.676 121.037 281.273 113.365 281.273 103.851C281.273 94.3381 273.524 86.666 264.256 86.666Z" fill="#4D7985"/>
<path d="M305.732 156.021C232.045 156.021 172.031 216.631 172.031 291.05C172.031 365.469 232.045 426.079 305.732 426.079H306.036C336.423 426.079 378.66 408.28 400.235 386.491C421.809 364.702 439.434 321.892 439.434 291.05C439.434 216.478 379.42 156.021 305.732 156.021ZM410.262 291.05C410.262 349.205 363.467 396.618 305.732 396.618C248.15 396.618 201.202 349.358 201.202 291.05C201.202 232.742 247.998 185.482 305.732 185.482C363.315 185.482 410.262 232.742 410.262 291.05Z" fill="#F1F1ED"/>
<path d="M89.0771 152.953C79.6572 152.953 72.0605 160.625 72.0605 170.139C72.0605 179.652 79.6572 187.324 89.0771 187.324C98.4969 187.324 106.094 179.652 106.094 170.139C106.094 160.625 98.4969 152.953 89.0771 152.953Z" fill="#4D7985"/>
<path d="M341.286 255.145C335.209 249.007 315.306 260.976 295.706 280.77C276.107 300.564 264.104 320.664 270.333 326.802C276.411 332.94 296.314 320.971 315.913 301.177C335.513 281.383 347.364 261.282 341.286 255.145Z" fill="#4D7985"/>
</svg>
