<svg width="315" height="117" viewBox="0 0 315 117" fill="none" xmlns="http://www.w3.org/2000/svg">
<g clip-path="url(#clip0)">
<path d="M49.6586 30.6709C26.7752 30.6709 8.18652 49.1131 8.18652 71.7754V112.581C8.18652 114.973 10.1662 116.934 12.582 116.934C14.9979 116.934 16.9775 114.973 16.9775 112.581V71.7754C16.9775 53.8981 31.6404 39.3769 49.6922 39.3769C52.108 39.3769 54.0877 37.4164 54.0877 35.0239C54.0541 32.6314 52.0745 30.6709 49.6586 30.6709Z" fill="#4D7985"/>
<path d="M60.396 48.249C41.3376 48.249 25.8359 63.6009 25.8359 82.4419C25.8359 101.316 41.3376 116.635 60.3625 116.635H60.4631C68.3146 116.635 79.2531 112.149 84.7894 106.633C90.3593 101.117 94.889 90.2507 94.889 82.4419C94.9225 63.6009 79.4208 48.249 60.396 48.249ZM87.373 82.4419C87.373 97.1956 75.2602 109.191 60.3625 109.191C45.4647 109.191 33.3519 97.1956 33.3519 82.4419C33.3519 67.6881 45.4647 55.6924 60.3625 55.6924C75.2602 55.7256 87.373 67.7213 87.373 82.4419Z" fill="#0D1F22"/>
<path d="M205.682 47.916C188.637 47.916 174.746 61.6397 174.746 78.5533V113.278C174.746 115.338 176.424 117 178.504 117C180.584 117 182.262 115.338 182.262 113.278V78.5201C182.262 65.7601 192.764 55.3594 205.649 55.3594C218.533 55.3594 229.036 65.7601 229.036 78.5201V113.278C229.036 115.338 230.713 117 232.794 117C234.874 117 236.552 115.338 236.552 113.245V78.5201C236.619 61.6397 222.728 47.916 205.682 47.916Z" fill="#4D7985"/>
<path d="M161.996 47.916C159.915 47.916 158.238 49.5775 158.238 51.6377V86.3622C158.238 99.1222 147.736 109.523 134.851 109.523C121.966 109.523 111.464 99.1222 111.464 86.3622V51.6377C111.464 49.5775 109.787 47.916 107.706 47.916C105.626 47.916 103.948 49.5775 103.948 51.6709V86.3954C103.948 103.276 117.806 117.033 134.885 117.033C151.963 117.033 165.821 103.309 165.821 86.3954V51.6377C165.754 49.5775 164.076 47.916 161.996 47.916Z" fill="#4D7985"/>
<path d="M311.209 0C309.128 0 307.451 1.66146 307.451 3.72167V82.6078C307.451 97.428 295.271 109.49 280.306 109.49C265.341 109.49 253.161 97.428 253.161 82.6078C253.161 67.7876 265.341 55.7254 280.306 55.7254C284.064 55.7254 289.802 57.1542 293.09 58.8821C293.56 59.148 294.331 59.3141 294.868 59.3141C296.948 59.3141 298.626 57.6527 298.626 55.5924C298.626 54.3297 297.754 52.9009 296.646 52.3028C292.419 50.0764 285.071 48.2488 280.272 48.2488C261.147 48.2488 245.578 63.6671 245.578 82.6078C245.578 101.548 261.147 116.967 280.272 116.967C299.398 116.967 314.967 101.548 314.967 82.6078V3.72167C315 1.66146 313.289 0 311.209 0Z" fill="#4D7985"/>
<path d="M4.39551 47.4512C1.97966 47.4512 0 49.4117 0 51.8042C0 54.1967 1.97966 56.1572 4.39551 56.1572C6.81136 56.1572 8.79101 54.1967 8.79101 51.8042C8.79101 49.4117 6.81136 47.4512 4.39551 47.4512Z" fill="#4D7985"/>
<path d="M69.5561 73.3699C67.9791 71.8081 62.8454 74.8652 57.7453 79.8828C52.6787 84.9004 49.5918 89.9845 51.1688 91.5795C52.7458 93.1413 57.8795 90.0842 62.9796 85.0666C68.0798 80.0157 71.1331 74.9317 69.5561 73.3699Z" fill="#4D7985"/>
<path d="M69.5561 73.3699C67.9791 71.8081 62.8454 74.8652 57.7453 79.8828C52.6787 84.9004 49.5918 89.9845 51.1688 91.5795C52.7458 93.1413 57.8795 90.0842 62.9796 85.0666C68.0798 80.0157 71.1331 74.9317 69.5561 73.3699Z" fill="#4D7985"/>
</g>
<defs>
<clipPath id="clip0">
<rect width="315" height="117" fill="white"/>
</clipPath>
</defs>
</svg>
