<svg width="106" height="98" viewBox="0 0 106 98" fill="none" xmlns="http://www.w3.org/2000/svg">
<path d="M55.4712 0.617188C29.9102 0.617188 9.14648 21.3549 9.14648 46.8379V92.7224C9.14648 95.4126 11.3578 97.6172 14.0563 97.6172C16.7548 97.6172 18.9661 95.4126 18.9661 92.7224V46.8379C18.9661 26.7354 35.3447 10.4069 55.5087 10.4069C58.2072 10.4069 60.4185 8.20232 60.4185 5.51203C60.3811 2.82173 58.1698 0.617188 55.4712 0.617188Z" fill="#F9F9F9"/>
<path d="M67.4653 20.3828C46.1769 20.3828 28.8613 37.6455 28.8613 58.8316C28.8613 80.055 46.1769 97.2803 67.4278 97.2803H67.5402C76.3105 97.2803 88.5288 92.236 94.7129 86.0334C100.935 79.8308 105.994 67.6124 105.994 58.8316C106.032 37.6455 88.7162 20.3828 67.4653 20.3828ZM97.5989 58.8316C97.5989 75.4217 84.0687 88.9105 67.4278 88.9105C50.7869 88.9105 37.2568 75.4217 37.2568 58.8316C37.2568 42.2414 50.7869 28.7526 67.4278 28.7526C84.0687 28.79 97.5989 42.2788 97.5989 58.8316Z" fill="#F9F9F9"/>
<path d="M4.90982 19.4805C2.2113 19.4805 0 21.685 0 24.3753C0 27.0656 2.2113 29.2701 4.90982 29.2701C7.60835 29.2701 9.81965 27.0656 9.81965 24.3753C9.81965 21.685 7.60835 19.4805 4.90982 19.4805Z" fill="#F9F9F9"/>
<path d="M77.6984 48.6368C75.9369 46.8806 70.2025 50.3182 64.5056 55.9603C58.8462 61.6025 55.3981 67.3193 57.1596 69.1128C58.9212 70.869 64.6556 67.4314 70.3524 61.7893C76.0493 56.1098 79.46 50.3929 77.6984 48.6368Z" fill="#F9F9F9"/>
</svg>
